<svg xmlns="http://www.w3.org/2000/svg" viewBox="0 0 64 64" id="express-js">
  <g>
    <path fill="#beeec1" d="M41.954,4.181H22.046c-3.779,0-7.272,2.016-9.161,5.289L2.931,26.711c-1.89,3.273-1.89,7.306,0,10.579l9.954,17.241c1.89,3.273,5.382,5.289,9.161,5.289h19.908c3.779,0,7.272-2.016,9.161-5.289l9.954-17.241c1.89-3.273,1.89-7.306,0-10.579l-9.954-17.241c-1.89-3.273-5.382-5.289-9.161-5.289Z"></path>
  </g>
  <path fill="#757677" d="M23.085 41.823c-5.417 0-9.823-4.407-9.823-9.823s4.407-9.823 9.823-9.823 9.823 4.407 9.823 9.823c0 .272-.22.492-.492.492H14.259c.256 4.646 4.117 8.347 8.826 8.347 2.496 0 4.888-1.064 6.563-2.917.183-.202.493-.218.695-.036s.218.494.036.695c-1.861 2.06-4.519 3.242-7.293 3.242zm-8.826-10.316H31.911c-.256-4.646-4.117-8.347-8.826-8.347s-8.57 3.701-8.826 8.347zM36.325 40.607c-.126 0-.252-.048-.348-.144-.192-.192-.192-.504 0-.696l13.922-13.922c.192-.192.504-.192.696 0s.192.504 0 .696l-13.922 13.922c-.096.096-.222.144-.348.144z"></path>
  <path fill="#757677" d="M50.246,40.607c-.126,0-.252-.048-.348-.144l-13.922-13.922c-.192-.192-.192-.504,0-.696s.504-.192,.696,0l13.922,13.922c.192,.192,.192,.504,0,.696-.096,.096-.222,.144-.348,.144Z"></path>
  <path fill="#96e39a" d="M61.117,26.794l-10.05-17.407c-.581-1.007-1.33-1.875-2.18-2.618,.441,.505,.853,1.04,1.196,1.633l10.05,17.407c1.86,3.222,1.86,7.191,0,10.412l-10.05,17.407c-1.86,3.222-5.297,5.206-9.017,5.206H20.966c-2.557,0-4.967-.955-6.837-2.588,1.956,2.236,4.787,3.573,7.821,3.573h20.1c3.72,0,7.157-1.985,9.017-5.206l10.05-17.407c1.86-3.221,1.86-7.191,0-10.412Z"></path>
  <g>
    <path fill="#e6f9e8" d="M13.917,55.598L3.867,38.19c-1.86-3.221-1.86-7.191,0-10.412L13.917,10.371c1.86-3.221,5.297-5.206,9.017-5.206h20.1c2.557,0,4.968,.955,6.837,2.588-1.956-2.236-4.787-3.573-7.821-3.573H21.95c-3.72,0-7.157,1.985-9.017,5.206L2.883,26.794c-1.86,3.222-1.86,7.191,0,10.412l10.05,17.407c.581,1.007,1.33,1.876,2.18,2.618-.442-.505-.853-1.04-1.196-1.634Z"></path>
  </g>
  <g>
    <path fill="#757677" d="M42.05,60.312H21.95c-3.883,0-7.502-2.089-9.443-5.452L2.457,37.452c-1.942-3.363-1.942-7.541,0-10.904L12.506,9.141c1.942-3.363,5.56-5.452,9.443-5.452h20.101c3.883,0,7.502,2.089,9.443,5.452l10.05,17.407c1.942,3.363,1.942,7.541,0,10.904l-10.05,17.407c-1.942,3.363-5.56,5.452-9.443,5.452ZM21.95,4.673c-3.532,0-6.825,1.901-8.591,4.96L3.309,27.04c-1.767,3.059-1.767,6.86,0,9.92l10.05,17.407c1.766,3.059,5.058,4.96,8.591,4.96h20.101c3.532,0,6.825-1.901,8.591-4.96l10.05-17.407c1.767-3.059,1.767-6.86,0-9.92l-10.05-17.407c-1.766-3.059-5.058-4.96-8.591-4.96H21.95Z"></path>
  </g>
</svg>
